<?xml version="1.0" standalone="no"?>
<!DOCTYPE svg PUBLIC "-//W3C//DTD SVG 20010904//EN"
 "http://www.w3.org/TR/2001/REC-SVG-20010904/DTD/svg10.dtd">
<svg version="1.0" xmlns="http://www.w3.org/2000/svg"
 width="1024.000000pt" height="1024.000000pt" viewBox="0 0 1024.000000 1024.000000"
 preserveAspectRatio="xMidYMid meet">
<metadata>
Created by potrace 1.16, written by Peter Selinger 2001-2019
</metadata>
<g transform="translate(0.000000,1024.000000) scale(0.100000,-0.100000)"
fill="#3395c2" stroke="none">
<path d="M5065 9383 c-223 -8 -567 -49 -760 -89 -324 -67 -598 -161 -900 -308
-404 -197 -684 -382 -1012 -668 -184 -161 -452 -472 -627 -728 -231 -338 -382
-633 -501 -984 -99 -292 -178 -659 -205 -956 -18 -201 -24 -563 -11 -742 15
-207 64 -501 120 -723 110 -435 355 -972 601 -1315 425 -595 879 -986 1524
-1314 369 -187 756 -314 1191 -390 398 -69 979 -78 1345 -21 339 54 737 165
1020 288 287 123 631 320 845 483 221 168 468 396 614 564 283 328 451 580
626 942 196 406 325 842 392 1319 22 159 25 730 5 918 -28 263 -92 585 -159
801 -191 622 -624 1342 -1055 1756 -259 247 -504 439 -728 568 -36 20 -99 57
-140 82 -121 73 -343 178 -524 249 -397 155 -774 231 -1306 265 -157 9 -190
10 -355 3z m616 -343 c562 -44 1178 -276 1702 -641 430 -301 725 -607 1019
-1059 397 -609 582 -1191 617 -1937 6 -111 8 -232 5 -270 -2 -37 -9 -140 -15
-228 -18 -271 -50 -452 -130 -726 -122 -422 -290 -767 -563 -1159 -244 -351
-619 -711 -1001 -964 -312 -205 -579 -332 -971 -459 -445 -145 -963 -197
-1459 -148 -650 64 -1110 205 -1629 500 -141 80 -171 100 -341 221 -176 126
-226 169 -399 338 -309 304 -504 560 -695 917 -205 384 -324 716 -400 1115
-74 387 -78 889 -10 1317 89 571 274 1040 604 1533 171 256 270 377 474 581
320 321 697 572 1201 801 78 36 245 94 415 145 252 76 533 122 830 137 117 6
603 -3 746 -14z"/>
<path d="M5338 7748 c-1 -604 -2 -1106 -2 -1115 -1 -15 12 -19 84 -25 250 -20
602 -201 794 -409 135 -146 215 -270 276 -426 102 -260 126 -587 61 -834 -90
-340 -316 -648 -617 -841 -78 -50 -259 -136 -344 -163 -52 -16 -118 -29 -170
-32 l-85 -6 0 -936 c1 -1237 2 -1321 18 -1316 6 2 98 9 202 15 278 17 505 63
800 164 727 247 1306 668 1784 1296 219 288 392 626 521 1021 77 232 143 606
154 864 l6 131 -366 -3 c-202 -1 -369 -5 -372 -7 -2 -3 -6 -49 -8 -103 -16
-422 -173 -896 -421 -1271 -321 -486 -798 -889 -1313 -1107 -182 -78 -268
-107 -398 -136 l-103 -23 7 -52 c3 -29 7 -93 8 -143 0 -50 3 -91 6 -91 32 1
246 59 360 98 249 86 393 152 606 278 228 134 384 255 597 464 275 267 460
516 618 830 109 216 169 385 234 655 32 132 62 257 67 278 l9 38 84 -3 c99 -4
93 11 69 -160 -66 -482 -320 -1052 -659 -1478 -207 -260 -551 -568 -827 -739
-446 -278 -852 -427 -1351 -497 l-47 -6 2 588 3 589 45 6 c127 19 382 112 550
202 280 149 495 329 702 587 244 305 377 607 450 1020 20 118 17 498 -5 634
-68 402 -238 763 -501 1064 -130 148 -238 249 -396 369 -192 146 -462 272
-720 338 -159 40 -143 31 -136 78 4 23 7 285 7 583 l0 543 32 -5 c269 -34 449
-71 597 -123 253 -87 567 -237 731 -348 30 -21 113 -77 185 -124 274 -183 580
-501 804 -834 164 -244 328 -575 427 -860 42 -123 100 -367 116 -490 31 -239
40 -322 35 -352 -4 -29 -2 -31 31 -37 20 -3 81 -6 136 -6 l101 0 -3 73 c-16
374 -78 698 -199 1035 -52 141 -233 513 -319 652 -74 120 -254 378 -314 450
-285 346 -692 668 -1100 870 -326 162 -506 230 -768 291 -211 49 -333 66 -580
82 l-193 12 -2 -1097z m497 -719 c261 -87 544 -270 747 -484 199 -209 344
-449 433 -718 61 -185 76 -284 82 -532 6 -264 -12 -393 -89 -620 -93 -276
-182 -425 -396 -662 -166 -185 -447 -388 -658 -477 -79 -33 -320 -103 -328
-95 -2 2 -6 50 -8 106 l-4 102 41 6 c124 19 273 86 455 205 204 134 417 361
553 590 144 243 204 450 214 742 7 175 -6 292 -52 474 -64 254 -164 449 -330
641 -234 272 -503 455 -789 538 -50 14 -92 27 -94 29 -2 2 0 51 4 109 l7 105
61 -15 c33 -7 101 -27 151 -44z"/>
<path d="M4860 8833 c-198 -9 -560 -74 -758 -135 -280 -85 -757 -319 -982
-481 -356 -256 -554 -437 -776 -712 -66 -82 -220 -306 -275 -401 -252 -435
-385 -795 -454 -1226 -14 -93 -35 -347 -35 -445 l0 -51 133 -1 134 -2 6 158
c19 478 186 981 488 1471 108 175 175 269 288 405 410 490 1079 908 1706 1066
77 19 369 67 449 73 l40 3 0 -587 1 -587 -88 -16 c-198 -36 -524 -172 -719
-300 -338 -222 -639 -558 -797 -889 -75 -157 -93 -206 -135 -353 -68 -238 -95
-498 -77 -736 14 -190 32 -286 81 -443 54 -174 91 -262 159 -386 255 -459 685
-827 1186 -1018 98 -37 273 -80 328 -80 61 0 57 44 57 -606 l0 -594 -27 5
c-527 87 -791 167 -1152 350 -529 268 -946 639 -1279 1137 -151 226 -280 493
-370 768 -72 222 -112 392 -119 518 l-6 92 74 0 c41 0 84 3 96 6 21 6 23 3 23
-39 0 -97 75 -426 136 -592 86 -237 233 -528 352 -695 82 -114 280 -358 301
-369 11 -6 25 -11 31 -11 7 0 55 43 107 95 l95 94 -33 43 c-18 24 -63 76 -100
116 -200 220 -414 602 -517 923 -36 113 -77 290 -86 371 l-6 56 58 6 c31 3 75
7 96 8 l40 3 12 -85 c16 -106 89 -363 142 -496 106 -265 250 -484 500 -762 92
-101 319 -299 452 -393 253 -180 577 -326 873 -393 38 -9 70 -16 73 -16 2 0 4
65 4 145 0 123 -2 145 -15 145 -36 0 -251 78 -380 137 -300 139 -474 263 -722
514 -335 339 -513 648 -617 1069 -24 99 -56 330 -56 407 l0 35 -52 -5 c-92
-11 -979 -18 -1080 -10 l-98 8 0 -45 c1 -210 21 -411 60 -600 64 -312 141
-541 270 -805 263 -537 600 -955 1049 -1299 235 -180 643 -405 924 -511 345
-129 721 -207 1115 -231 l114 -7 -3 1126 -3 1126 -20 5 c-12 2 -82 17 -156 31
-315 63 -472 148 -706 380 -210 209 -305 369 -355 603 -26 125 -37 454 -20
587 13 96 54 230 103 333 64 137 220 337 345 444 219 187 447 291 718 328 l90
12 4 1109 3 1109 -88 -2 c-49 -1 -118 -3 -154 -5z m-40 -1852 l0 -108 -132
-43 c-496 -158 -874 -517 -1071 -1015 -71 -181 -99 -401 -86 -682 19 -403 188
-772 481 -1048 235 -222 469 -356 716 -411 l82 -19 0 -97 c0 -114 9 -109 -130
-82 -155 29 -332 107 -522 231 -169 110 -350 273 -485 439 -144 176 -268 445
-328 710 -25 107 -28 143 -33 365 -5 266 -2 298 49 509 38 155 132 352 260
545 109 162 191 259 316 371 91 80 312 236 393 276 160 79 401 166 463 168
l27 0 0 -109z"/>
<path d="M4485 8299 c-44 -11 -118 -28 -165 -39 -421 -100 -970 -417 -1345
-779 -208 -200 -344 -373 -506 -641 -253 -421 -393 -866 -415 -1320 l-7 -135
137 0 136 0 0 85 c0 219 100 638 215 901 90 205 286 514 458 719 163 196 326
344 567 514 236 167 561 320 830 392 52 14 119 32 148 40 l52 15 0 134 c0 102
-3 135 -12 134 -7 -1 -49 -10 -93 -20z"/>
<path d="M5850 8172 l0 -137 111 -23 c303 -62 746 -285 1044 -525 199 -161
431 -408 554 -591 82 -122 212 -347 258 -446 142 -305 246 -686 260 -947 l6
-123 139 0 140 0 -7 103 c-4 56 -13 138 -20 182 -8 44 -17 102 -20 129 -13 93
-84 364 -129 488 -191 527 -513 996 -931 1357 -350 302 -832 549 -1265 647
-155 35 -140 47 -140 -114z"/>
<path d="M4559 7816 c-2 -3 -65 -20 -139 -39 -161 -42 -430 -156 -583 -247
-184 -109 -389 -270 -553 -434 -325 -325 -543 -682 -658 -1076 -59 -203 -83
-336 -92 -497 l-6 -133 120 0 c66 0 127 -3 136 -6 13 -5 16 2 16 42 0 121 68
435 130 605 89 243 220 475 374 664 293 358 566 565 1005 759 88 39 133 55
264 92 15 5 17 19 17 117 0 133 -9 175 -31 153z"/>
<path d="M5860 7682 l0 -138 89 -27 c98 -29 395 -168 505 -236 127 -78 299
-214 420 -331 385 -374 610 -806 706 -1362 26 -152 37 -404 22 -513 -46 -326
-70 -435 -134 -610 -68 -186 -166 -371 -286 -540 -57 -81 -273 -326 -353 -400
-208 -194 -621 -436 -882 -516 -56 -17 -104 -33 -108 -35 -3 -1 1 -40 7 -86 7
-46 13 -107 13 -136 l1 -54 43 7 c171 29 457 150 697 293 405 244 817 687
1016 1092 107 219 145 325 199 560 19 85 42 171 49 190 8 19 20 96 26 170 29
341 -47 841 -177 1169 -219 555 -565 980 -1068 1313 -203 135 -563 289 -752
322 l-33 6 0 -138z"/>
<path d="M5066 6400 c-161 -26 -365 -101 -491 -180 -108 -68 -157 -110 -248
-209 -160 -177 -241 -340 -272 -549 -30 -196 -16 -379 41 -552 66 -199 148
-334 280 -460 230 -219 566 -342 889 -326 313 16 543 115 743 321 120 123 180
208 248 350 79 166 99 256 98 445 0 186 -19 292 -75 436 -67 172 -161 310
-285 420 -185 162 -305 228 -518 280 -114 28 -312 39 -410 24z m308 -345 c123
-26 237 -76 341 -150 282 -200 400 -623 265 -949 -124 -298 -403 -497 -721
-513 -386 -20 -742 214 -856 562 -35 109 -44 311 -18 436 49 247 284 500 541
583 143 46 318 59 448 31z"/>
<path d="M3140 3091 c-47 -38 -96 -81 -110 -96 l-25 -27 50 -44 c54 -48 297
-218 435 -304 278 -174 691 -340 979 -394 132 -25 120 -38 123 128 l3 144
-115 22 c-134 26 -290 79 -480 162 -255 111 -374 184 -605 367 -76 61 -146
111 -155 111 -8 -1 -53 -32 -100 -69z"/>
</g>
</svg>
